<svg enable-background="new 0 0 100 34" fill="#0a1532" viewBox="0 0 100 34" xmlns="http://www.w3.org/2000/svg"><path d="m.3 0s-.3 0-.3.2.3.2.3.2c.9.2 1.5.6 1.8 1.4.2.4.2 1.2.2 2.3v15.4c0 1.1 0 1.9-.2 2.3-.3.7-.9 1.1-1.7 1.3h-.1c-.1 0-.3.1-.3.2 0 .2.3.2.3.2h8.9s.3 0 .3-.2-.2-.2-.2-.2h-.1c-.9-.2-1.4-.6-1.7-1.3-.2-.4-.2-1.2-.2-2.3v-6.9c0-.2.1-.3.3-.3h4.7c3.7 0 3.4 1.8 3.7 2.2s.6.2.6.2v-6.5s-.4-.2-.6.2c-.3.4 0 2.2-3.7 2.2h-4.8c-.2 0-.3-.1-.3-.3v-8.4c0-.2.1-.3.3-.3h8.5c2.2 0 3.1.4 4 2.3.3.7 1.2.4 1.2.4l-.5-4c0-.2-.2-.3-.3-.3h-20.1zm83.3 1.9c0-.2.1-.3.3-.3h1.9c5.9 0 9.2 4.3 9.2 10.4 0 6-3.9 10-9.8 10-.9 0-1.6-.4-1.6-1.8zm1.5-1.9h-8.5s-.3 0-.3.2.3.2.3.2c.9.2 1.5.6 1.8 1.3.2.4.2 1.2.2 2.3v15.4c0 1.1-.1 1.9-.2 2.3-.3.7-.9 1.1-1.8 1.3-.1 0-.3.1-.3.2 0 .2.3.2.3.2h8.5c9.7 0 14.9-4.6 14.9-11.6s-5.2-11.8-14.9-11.8m-24.8 22c-1 0-1.6-.4-1.6-1.7v-7.7c0-.2.1-.3.3-.3h3.9c3.7 0 3.4 1.8 3.7 2.2s.6.2.6.2v-6.5s-.4-.2-.6.2c-.3.4 0 2.2-3.7 2.2h-3.9c-.2 0-.3-.1-.3-.3v-8.4c0-.2.1-.3.3-.3h7.5c2.2 0 3.1.4 4 2.3.3.7 1.2.4 1.2.4l-.5-4c0-.2-.2-.3-.4-.3h-19.1s-.3 0-.3.2.3.2.3.2c.9.2 1.5.6 1.8 1.3.2.4.2 1.2.2 2.3v15.4c0 1.1-.1 1.9-.2 2.3-.3.7-.9 1.1-1.7 1.3-.1 0-.3.1-.3.2 0 .2.3.2.3.2h19.6c.2 0 .4-.1.4-.3l.6-4.9c-.2 0-1.1-.2-1.7 1-1 2.2-2.8 2.6-5.5 2.6zm20.8 6.4c-.1-.1-.2 0-.2 0-4.1 2-9.4 2.7-14.2 2.7s-9.1-.9-12.9-2.6c-6.2-2.9-10.8-8-13.2-14.9 3.6-.8 6-3.3 6-6.7 0-4.1-4.1-6.8-8.8-6.8h-13s-.3 0-.3.2.3.2.3.2c.9.2 1.5.6 1.8 1.3.1.4.2 1.2.2 2.2v15.3c0 1.1-.1 1.9-.2 2.3-.3.7-.9 1.1-1.8 1.3-.1 0-.3.1-.3.2 0 .2.3.2.3.2h8.9s.3 0 .3-.2c0-.1-.1-.2-.2-.2h-.1c-.8-.2-1.4-.6-1.7-1.3-.2-.4-.2-1.2-.2-2.3v-17.6c0-.2.1-.3.3-.3h2.4c4.8 0 7.3 2.2 7.3 5.5 0 2.8-2.4 5.1-6.1 5.5 0 0-.3 0-.4.1s-.1.4-.1.4c3.3 13.1 14.6 20.6 29.2 20.6 6.2 0 11.9-1.8 16.7-4.9 0 0 .1-.1 0-.2"/></svg>